<svg xmlns="http://www.w3.org/2000/svg" version="1.1" xmlns:xlink="http://www.w3.org/1999/xlink" xmlns:svgjs="http://svgjs.com/svgjs" width="512" height="512" x="0" y="0" viewBox="0 0 32 32" style="enable-background:new 0 0 512 512" xml:space="preserve" class=""><g><g xmlns="http://www.w3.org/2000/svg" id="Layer_1" data-name="Layer 1"><path d="m16 4a12 12 0 1 0 12 12 12 12 0 0 0 -12-12zm3.61 17.33a1 1 0 0 1 .18 1.4 1 1 0 0 1 -.79.39 1 1 0 0 1 -.61-.2l-8-6.13a1 1 0 0 1 0-1.58l8-6.13a1 1 0 0 1 1.22 1.59l-7 5.33z" fill="#000000" data-original="#000000"></path></g></g></svg>