<svg xmlns="http://www.w3.org/2000/svg" version="1.1" xmlns:xlink="http://www.w3.org/1999/xlink" xmlns:svgjs="http://svgjs.com/svgjs" width="512" height="512" x="0" y="0" viewBox="0 0 24 24" style="enable-background:new 0 0 512 512" xml:space="preserve" class=""><g><path xmlns="http://www.w3.org/2000/svg" d="m11.078 7.059c-3.528.454-6.078 3.628-6.078 7.185v2.756h14v-3c0-4.163-3.654-7.489-7.922-6.941zm.922 3.941c-1.654 0-3 1.346-3 3 0 .552-.447 1-1 1s-1-.448-1-1c0-2.757 2.243-5 5-5 .553 0 1 .448 1 1s-.447 1-1 1z" fill="#000000" data-original="#000000" class=""></path><path xmlns="http://www.w3.org/2000/svg" d="m12 5c-.553 0-1-.448-1-1v-3c0-.552.447-1 1-1s1 .448 1 1v3c0 .552-.447 1-1 1z" fill="#000000" data-original="#000000" class=""></path><path xmlns="http://www.w3.org/2000/svg" d="m6 7c-.256 0-.512-.098-.707-.293l-2.121-2.121c-.391-.391-.391-1.023 0-1.414s1.023-.391 1.414 0l2.121 2.121c.391.391.391 1.023 0 1.414-.195.195-.451.293-.707.293z" fill="#000000" data-original="#000000" class=""></path><path xmlns="http://www.w3.org/2000/svg" d="m18 7c-.256 0-.512-.098-.707-.293-.391-.391-.391-1.023 0-1.414l2.121-2.121c.391-.391 1.023-.391 1.414 0s.391 1.023 0 1.414l-2.121 2.121c-.195.195-.451.293-.707.293z" fill="#000000" data-original="#000000" class=""></path><path xmlns="http://www.w3.org/2000/svg" d="m2 13h-1c-.553 0-1-.448-1-1s.447-1 1-1h1c.553 0 1 .448 1 1s-.447 1-1 1z" fill="#000000" data-original="#000000" class=""></path><path xmlns="http://www.w3.org/2000/svg" d="m23 13h-1.25c-.553 0-1-.448-1-1s.447-1 1-1h1.25c.553 0 1 .448 1 1s-.447 1-1 1z" fill="#000000" data-original="#000000" class=""></path><path xmlns="http://www.w3.org/2000/svg" d="m22.25 24h-20.5c-.965 0-1.75-.785-1.75-1.75v-1.5c0-.965.785-1.75 1.75-1.75h20.5c.965 0 1.75.785 1.75 1.75v1.5c0 .965-.785 1.75-1.75 1.75z" fill="#000000" data-original="#000000" class=""></path></g></svg>