<svg xmlns="http://www.w3.org/2000/svg" version="1.1" xmlns:xlink="http://www.w3.org/1999/xlink" xmlns:svgjs="http://svgjs.com/svgjs" width="512" height="512" x="0" y="0" viewBox="0 0 512 512" style="enable-background:new 0 0 512 512" xml:space="preserve" class=""><g><circle xmlns="http://www.w3.org/2000/svg" cx="256" cy="256" r="43.872" fill="#000000" data-original="#000000"></circle><path xmlns="http://www.w3.org/2000/svg" d="m159.729 256a96.271 96.271 0 1 0 96.271-96.272 96.381 96.381 0 0 0 -96.271 96.272zm24.544 0a5 5 0 0 1 -10 0 81.872 81.872 0 0 1 48.389-74.639 5 5 0 1 1 4.084 9.129 71.856 71.856 0 0 0 -42.473 65.51zm125.6 0a53.872 53.872 0 1 1 -53.873-53.873 53.933 53.933 0 0 1 53.872 53.873zm-48.873-76.726a5 5 0 0 1 -5 5 72.446 72.446 0 0 0 -11.846.973 5 5 0 1 1 -1.638-9.865 82.539 82.539 0 0 1 13.484-1.108 5 5 0 0 1 5 5z" fill="#000000" data-original="#000000"></path><path xmlns="http://www.w3.org/2000/svg" d="m128.827 101.471a199.961 199.961 0 0 1 285.515 32.194l11.386-29.6q-4.19-4.668-8.65-9.146a227.8 227.8 0 0 0 -322.156 0q-4.47 4.469-8.65 9.146l11.387 29.6a200.612 200.612 0 0 1 31.168-32.194z" fill="#000000" data-original="#000000"></path><path xmlns="http://www.w3.org/2000/svg" d="m421.347 143.31a199.64 199.64 0 0 1 30.641 72.031 5 5 0 0 1 -5.884 5.912l-99.025-19.953a106.077 106.077 0 0 1 0 109.4l99.021-19.953a5 5 0 0 1 5.884 5.912 200.335 200.335 0 0 1 -158.87 156.017 5 5 0 0 1 -5.922-4.914v-90.162a106.417 106.417 0 0 1 -62.384 0v90.164a5 5 0 0 1 -5.922 4.914 200.335 200.335 0 0 1 -158.874-156.019 5 5 0 0 1 5.884-5.912l99.025 19.953a106.079 106.079 0 0 1 0-109.4l-99.021 19.953a5 5 0 0 1 -5.884-5.912 199.652 199.652 0 0 1 30.641-72.032l-11.767-30.59a227.806 227.806 0 0 0 338.188 304.359 227.828 227.828 0 0 0 16.036-304.359z" fill="#000000" data-original="#000000"></path></g></svg>