<svg xmlns="http://www.w3.org/2000/svg" version="1.1" xmlns:xlink="http://www.w3.org/1999/xlink" xmlns:svgjs="http://svgjs.com/svgjs" width="512" height="512" x="0" y="0" viewBox="0 0 512 512" style="enable-background:new 0 0 512 512" xml:space="preserve" class=""><g><g xmlns="http://www.w3.org/2000/svg"><path d="m137.721 385.172v11.423c0 4.142 3.357 7.5 7.5 7.5s7.5-3.358 7.5-7.5v-11.423c0-4.142-3.357-7.5-7.5-7.5s-7.5 3.358-7.5 7.5zm306.779-97.067h-188.674c-4.143 0-7.5 3.358-7.5 7.5s3.357 7.5 7.5 7.5h188.674c4.143 0 7.5-3.358 7.5-7.5s-3.357-7.5-7.5-7.5zm-320.021 135.376c-1.706.936-4.483 2.039-7.987 2.006-3.361-.035-6.013-1.11-7.645-2.005-3.632-1.993-8.19-.664-10.183 2.968-1.992 3.632-.664 8.191 2.968 10.183 4.498 2.467 9.582 3.8 14.702 3.853 6.537.068 12.135-2.085 15.357-3.853 3.632-1.992 4.961-6.55 2.97-10.183-1.991-3.631-6.549-4.96-10.182-2.969zm-36.374-45.809c-4.143 0-7.5 3.358-7.5 7.5v11.423c0 4.142 3.357 7.5 7.5 7.5s7.5-3.358 7.5-7.5v-11.423c0-4.142-3.357-7.5-7.5-7.5zm417.916 27.539c-.25-4.134-3.789-7.294-7.938-7.035-4.135.25-7.284 3.804-7.034 7.938l4.046 67.03c.378 6.257-1.78 12.216-6.077 16.779-4.296 4.563-10.114 7.077-16.382 7.077h-433.271c-6.268 0-12.086-2.513-16.382-7.077-4.297-4.563-6.455-10.522-6.077-16.779l12.655-209.644h90.192c4.143 0 7.5-3.358 7.5-7.5s-3.357-7.5-7.5-7.5h-90.192l-12.655-209.644c-.378-6.257 1.78-12.216 6.077-16.779 4.296-4.564 10.115-7.077 16.382-7.077h433.27c6.268 0 12.086 2.513 16.382 7.077 4.297 4.563 6.455 10.522 6.077 16.779l-12.655 209.644h-327.686c-4.143 0-7.5 3.358-7.5 7.5s3.357 7.5 7.5 7.5h327.687l6.49 107.526c.24 3.981 3.544 7.049 7.479 7.049.151 0 .305-.005.459-.014 4.135-.25 7.284-3.804 7.034-7.938l-6.888-114.123 13.053-216.241c.63-10.427-2.968-20.359-10.128-27.965-7.162-7.605-16.858-11.794-27.304-11.794h-433.27c-10.446 0-20.142 4.189-27.303 11.794-7.161 7.606-10.758 17.538-10.128 27.965l13.052 216.241-13.052 216.241c-.63 10.427 2.968 20.359 10.128 27.965 7.161 7.605 16.857 11.794 27.303 11.794h433.27c10.446 0 20.143-4.189 27.304-11.794 7.16-7.606 10.758-17.538 10.128-27.965zm-61.521-72.106h-188.674c-4.143 0-7.5 3.358-7.5 7.5s3.357 7.5 7.5 7.5h188.674c4.143 0 7.5-3.358 7.5-7.5s-3.357-7.5-7.5-7.5zm-171.561 131.948c.087 4.142 3.55 7.421 7.656 7.34 10.435-.22 24.276-2.243 36.818-9.678 5.172 2.585 10.714 4.644 16.058 6.144 9.018 2.531 16.896 3.592 23.644 3.592 13.538 0 22.521-4.271 26.997-9.51 2.913-3.41 4.294-7.306 5.173-10.672 1.24 1.765 2.8 4.245 4.694 7.712 1.986 3.635 6.542 4.973 10.178 2.986 3.635-1.986 4.972-6.542 2.986-10.177-5.842-10.692-13.075-21.334-22.485-19.192-6.835 1.557-8.326 8.126-9.313 12.473-.613 2.705-1.249 5.501-2.637 7.126-3.758 4.398-17.945 6.058-35.183 1.22-2.281-.641-4.61-1.415-6.9-2.295 5.103-5.166 11.489-13.137 9.431-23.074-1.257-6.066-5.317-11.614-11.141-15.219-5.52-3.418-11.851-4.541-17.377-3.086-9.638 2.541-18.907 14.489-16.799 27.574.893 5.543 4.013 10.469 8.447 14.722-8.003 3.217-16.287 4.217-22.907 4.357-4.141.088-7.427 3.516-7.34 7.657zm42.423-39.804c1.837-.484 3.828.203 5.656 1.335 2.27 1.405 3.937 3.516 4.35 5.509.83 4.005-5.174 9.465-8.767 12.708-3.884-2.819-6.572-5.883-7.054-8.869-.647-4.02 2.505-9.811 5.815-10.683zm136.638-39.644c0-4.142-3.357-7.5-7.5-7.5h-188.674c-4.143 0-7.5 3.358-7.5 7.5s3.357 7.5 7.5 7.5h188.674c4.143 0 7.5-3.358 7.5-7.5zm-281.506-238.262c-4.111 0-8.05-1.638-10.536-4.382-2.782-3.069-7.524-3.303-10.594-.521-3.069 2.781-3.303 7.524-.521 10.594 5.361 5.917 13.253 9.31 21.651 9.31 10.571 0 19.46-6.81 21.135-16.192 1.272-7.127-1.876-16.406-14.528-21.073-5.364-1.979-10.379-4.127-12.227-4.933-1.276-1.395.417-3.076 2.095-3.581 5.577-1.681 10.924 2.469 11.124 2.626 3.169 2.618 7.864 2.195 10.515-.959 2.665-3.171 2.255-7.902-.915-10.567-4.232-3.558-14.272-8.709-25.05-5.462-7.026 2.117-12.002 7.682-12.983 14.523-.928 6.461 1.875 12.678 7.314 16.224 2.633 1.717 5.77 2.823 14.936 6.203 2.481.915 5.267 2.607 4.953 4.364-.276 1.542-2.491 3.826-6.369 3.826zm198.773-15.593c0-16.869-13.724-30.593-30.593-30.593s-30.593 13.724-30.593 30.593 13.724 30.593 30.593 30.593 30.593-13.724 30.593-30.593zm-46.186 0c0-8.598 6.995-15.593 15.593-15.593s15.593 6.995 15.593 15.593-6.995 15.593-15.593 15.593-15.593-6.995-15.593-15.593zm-97.444 15.593c-4.111 0-8.05-1.639-10.538-4.383-2.78-3.069-7.524-3.301-10.594-.521-3.068 2.782-3.302 7.525-.52 10.594 5.362 5.917 13.254 9.31 21.651 9.31 10.571 0 19.459-6.81 21.135-16.191 1.272-7.128-1.876-16.407-14.528-21.074-5.365-1.979-10.38-4.127-12.228-4.933-1.277-1.395.417-3.076 2.095-3.581 5.572-1.679 10.913 2.459 11.123 2.625 3.171 2.619 7.865 2.196 10.516-.958 2.665-3.171 2.256-7.902-.915-10.567-4.232-3.557-14.272-8.711-25.05-5.462-7.026 2.117-12.002 7.682-12.983 14.523-.928 6.461 1.875 12.678 7.314 16.224 2.636 1.719 5.768 2.82 14.937 6.203 2.48.915 5.267 2.607 4.953 4.364-.276 1.543-2.49 3.827-6.368 3.827zm194.528-26.683c0-10.754-9.054-19.503-20.182-19.503h-12.273c-.002 0-.005 0-.007 0s-.005 0-.007 0c-4.143 0-7.5 3.358-7.5 7.5v46.186c0 4.142 3.357 7.5 7.5 7.5s7.5-3.358 7.5-7.5v-8.498l11.84 13.453c1.482 1.685 3.553 2.545 5.633 2.545 1.76 0 3.527-.616 4.952-1.87 3.109-2.736 3.411-7.476.675-10.585l-10.071-11.442c7.027-3.054 11.94-9.87 11.94-17.786zm-20.182 4.504c-1.147 0-2.903.006-4.729.014-.008-1.751-.018-7.176-.021-9.02h4.751c2.761 0 5.182 2.104 5.182 4.503s-2.422 4.503-5.183 4.503zm-348.88-24.007c-3.687-.085-7.655 3.278-7.5 7.5v46.186c0 4.142 3.357 7.5 7.5 7.5s7.5-3.358 7.5-7.5v-12.601c2.054-.01 4.074-.017 5.36-.017 11.463 0 20.789-9.211 20.789-20.534s-9.326-20.534-20.789-20.534zm18.649 20.534c0 3-2.651 5.534-5.789 5.534-1.277 0-3.272.007-5.311.017-.01-2.13-.022-8.844-.028-11.084h5.339c3.138-.001 5.789 2.533 5.789 5.533zm202.005 33.152v-12.601c2.054-.01 4.074-.017 5.36-.017 11.463 0 20.788-9.211 20.788-20.534s-9.325-20.534-20.788-20.534h-12.86c-3.69-.077-7.65 3.262-7.5 7.5v46.186c0 4.142 3.357 7.5 7.5 7.5s7.5-3.358 7.5-7.5zm5.36-38.686c3.138 0 5.788 2.534 5.788 5.534s-2.65 5.534-5.788 5.534c-1.277 0-3.272.007-5.311.017-.01-2.13-.022-8.844-.028-11.084h5.339zm-227.144 205.03v84.519c0 36.773 29.917 66.69 66.69 66.69 36.772 0 66.689-29.917 66.689-66.69v-84.519c0-18.241-14.84-33.082-33.081-33.082h-67.216c-18.242 0-33.082 14.84-33.082 33.082zm118.38 84.518c0 28.502-23.188 51.69-51.689 51.69s-51.69-23.188-51.69-51.69v-35.764l58.011-13.482c7.02-1.632 14.525-.949 21.136 1.922l24.233 10.523v36.801zm0-84.518v31.364l-18.259-7.929c-9.54-4.143-20.375-5.129-30.506-2.773l-54.615 12.693v-33.355c0-9.97 8.111-18.082 18.082-18.082h67.217c9.969 0 18.081 8.111 18.081 18.082zm-29.924-168.992-17.186-45.537c-.025-.068-.052-.135-.079-.202-1.322-3.219-4.425-5.298-7.905-5.298h-.007c-3.482.003-6.585 2.088-7.903 5.312-.023.057-.046.113-.067.17l-17.343 45.535c-1.475 3.871.469 8.204 4.339 9.678 3.779 1.439 8.192-.418 9.679-4.339l2.48-6.51h17.511l2.449 6.489c1.462 3.876 5.79 5.833 9.665 4.369 3.874-1.465 5.83-5.792 4.367-9.667zm-28.28-16.193 3.082-8.093 3.054 8.093zm337.944 26.341c4.143 0 7.5-3.358 7.5-7.5v-38.686h5.305c4.143 0 7.5-3.358 7.5-7.5s-3.357-7.5-7.5-7.5h-25.507c-4.143 0-7.5 3.358-7.5 7.5s3.357 7.5 7.5 7.5h5.202v38.686c0 4.142 3.357 7.5 7.5 7.5z" fill="#000000" data-original="#000000" class=""></path></g></g></svg>