<svg xmlns="http://www.w3.org/2000/svg" version="1.1" xmlns:xlink="http://www.w3.org/1999/xlink" xmlns:svgjs="http://svgjs.com/svgjs" width="512" height="512" x="0" y="0" viewBox="0 0 512 512" style="enable-background:new 0 0 512 512" xml:space="preserve" class=""><g><g xmlns="http://www.w3.org/2000/svg"><g><path d="m451.634 402.707c4.142 0 7.5-3.358 7.5-7.5v-365.712c0-16.264-13.231-29.495-29.495-29.495h-347.278c-16.264 0-29.495 13.231-29.495 29.495v453.01c0 16.263 13.231 29.495 29.495 29.495h347.278c16.264 0 29.495-13.231 29.495-29.495v-52.213c0-4.142-3.358-7.5-7.5-7.5s-7.5 3.358-7.5 7.5v52.213c0 7.992-6.502 14.495-14.495 14.495h-347.278c-7.992 0-14.495-6.502-14.495-14.495v-453.01c0-7.993 6.502-14.495 14.495-14.495h347.278c7.993 0 14.495 6.502 14.495 14.495v365.711c0 4.143 3.358 7.501 7.5 7.501z" fill="#000000" data-original="#000000" class=""></path><path d="m97.391 109.293c-4.142 0-7.5 3.358-7.5 7.5v341.365c0 9.273 7.544 16.817 16.817 16.817h298.584c9.273 0 16.817-7.544 16.817-16.817v-404.316c0-9.273-7.544-16.817-16.817-16.817h-298.584c-9.273 0-16.817 7.544-16.817 16.817v27.866c0 4.142 3.358 7.5 7.5 7.5s7.5-3.358 7.5-7.5v-27.866c0-1.002.815-1.817 1.817-1.817h298.584c1.002 0 1.817.815 1.817 1.817v302.265c-4.439-2.861-9.256-5.142-14.352-6.755l-45.877-14.526c-.891-.753-1.864-1.408-2.929-1.931l-41.116-20.2v-19.174c18.87-13.46 31.169-34.535 33.542-57.56 8.801-1.637 15.485-9.374 15.485-18.642 0-22.576 0-51.629 0-72.311 0-16.14-13.131-29.27-29.271-29.27h-.586c-.08-16.072-13.179-29.123-29.27-29.123h-75.022c-31.763 0-57.604 25.841-57.604 57.604v73.1c0 9.269 6.685 17.005 15.486 18.642 2.373 23.025 14.672 44.1 33.542 57.56v19.181l-41.102 20.193c-1.07.525-2.045 1.182-2.938 1.938l-45.855 14.518c-5.095 1.613-9.912 3.894-14.351 6.755v-239.313c0-4.142-3.358-7.5-7.5-7.5zm122.83 282.892c3.425 1.065 7.007 1.134 10.623.045l6.045 7.64-6.78 26.666c-3.811-11.101-7.286-22.767-9.888-34.351zm67.614-90.233v12.68l-31.129 36.609-32.569-36.716v-12.574c19.948 8.56 43.025 8.871 63.698.001zm-71.613 66.093c-1.451-14.684-.605-27.07 2.531-36.984l27.335 30.815-18.407 15.376c-1.185.988-2.875.994-4.06.057zm27.055 15.724 13.493-11.271 12.169 10.405-5.769 7.721h-14.468zm50.038-52.427c3.044 9.802 3.874 21.994 2.476 36.416l-7.152 8.875c-1.196.932-2.888.908-4.065-.097l-17.189-14.698zm-11.432 95.172-6.804-26.769 6.173-8.261c3.624 1.135 7.231 1.099 10.655.065-2.615 11.785-6.145 23.667-10.024 34.965zm-42.535 24.561 11.556-45.451h10.192l11.549 45.435c-1.257 3.083-2.505 6.063-3.73 8.916h-25.844c-1.222-2.848-2.468-5.822-3.723-8.9zm167.761-75.632v82.715c0 1.002-.815 1.817-1.817 1.817h-94.128c22.261-24.788 36.119-45.217 41.245-60.843 2.244-6.839.462-14.257-4.648-19.358l-5.522-5.512c-1.244-1.242-1.538-3.126-.732-4.689l8.875-17.206c.103-.2.193-.405.286-.608l37.562 11.893c7.213 2.283 13.684 6.344 18.879 11.791zm-70.357-29.373c-2.837 8.497-19.096 24.846-5.109 38.808l5.521 5.511c1.082 1.079 1.462 2.638.993 4.067-5.057 15.417-21.425 38.036-47.391 65.519h-5.569c.788-1.897 1.581-3.839 2.375-5.819.003-.009.008-.018.011-.028 13.973-34.818 29.901-84.854 21.556-121.624zm-161.643-201.851c0-23.492 19.112-42.604 42.604-42.604h75.022c7.869 0 14.27 6.402 14.27 14.271 0 8.19 6.663 14.853 14.853 14.853h.733c7.869 0 14.271 6.401 14.271 14.27v40.04h-7.543c-4.217 0-7.648-3.431-7.648-7.648v-8.291c0-16.025-15.646-27.335-30.863-22.305-22.446 7.419-47.171 7.42-69.646-.004-15.218-5.027-30.86 6.282-30.86 22.306v8.294c0 4.217-3.431 7.648-7.648 7.648h-7.543v-40.83zm15.194 87.646c-.375-5.935-5.309-10.584-11.233-10.584-2.184 0-3.961-1.777-3.961-3.961v-17.271h7.543c12.488 0 22.648-10.16 22.648-22.648v-8.294c0-5.732 5.589-9.902 11.183-8.053 25.482 8.418 53.549 8.416 79.03-.006 5.5-1.818 11.156 2.269 11.156 8.062v8.291c0 12.488 10.16 22.648 22.648 22.648h7.543v17.271c0 2.185-1.777 3.961-3.961 3.961-5.925 0-10.859 4.65-11.233 10.585-1.316 20.875-12.667 40.072-30.364 51.353-21.482 13.694-49.146 13.699-70.635 0-17.696-11.281-29.047-30.478-30.364-51.354zm34.107 222.281c.002.006.005.012.007.019.794 1.977 1.585 3.917 2.372 5.811h-5.569c-25.966-27.483-42.334-50.102-47.392-65.519-.469-1.43-.088-2.988.993-4.068l5.521-5.511c13.989-13.963-2.278-30.327-5.109-38.808l27.614-13.566c-8.329 36.701 7.521 86.654 21.563 121.642zm-100.641-90.494 37.55-11.889c.093.202.181.405.284.604l8.875 17.205c.806 1.563.512 3.448-.732 4.689l-5.522 5.511c-5.11 5.102-6.892 12.519-4.648 19.359 5.126 15.627 18.985 36.055 41.245 60.843h-94.113c-1.002 0-1.817-.815-1.817-1.817v-82.715c5.195-5.446 11.666-9.507 18.878-11.79z" fill="#000000" data-original="#000000" class=""></path></g></g></g></svg>